<?xml version="1.0" encoding="utf-8" standalone="no"?>
<!DOCTYPE svg PUBLIC "-//W3C//DTD SVG 1.1//EN"
  "http://www.w3.org/Graphics/SVG/1.1/DTD/svg11.dtd">
<!-- Created with matplotlib (http://matplotlib.org/) -->
<svg height="432pt" version="1.1" viewBox="0 0 576 432" width="576pt" xmlns="http://www.w3.org/2000/svg" xmlns:xlink="http://www.w3.org/1999/xlink">
 <defs>
  <style type="text/css">
*{stroke-linecap:butt;stroke-linejoin:round;}
  </style>
 </defs>
 <g id="figure_1">
  <g id="patch_1">
   <path d="
M0 432
L576 432
L576 0
L0 0
z
" style="fill:#ffffff;"/>
  </g>
  <g id="axes_1">
   <g id="patch_2">
    <path d="
M72 388.8
L518.4 388.8
L518.4 43.2
L72 43.2
z
" style="fill:#ffffff;"/>
   </g>
   <g id="PolyCollection_1">
    <path clip-path="url(#p7ff5b81e1d)" d="
M72 388.8
L72 345.6
L127.8 345.6
L127.8 388.8
L72 388.8
z
" style="fill:#800000;"/>
    <path clip-path="url(#p7ff5b81e1d)" d="
M127.8 388.8
L127.8 345.6
L183.6 345.6
L183.6 388.8
L127.8 388.8
z
" style="fill:#000080;"/>
    <path clip-path="url(#p7ff5b81e1d)" d="
M183.6 388.8
L183.6 345.6
L239.4 345.6
L239.4 388.8
L183.6 388.8
z
" style="fill:#800000;"/>
    <path clip-path="url(#p7ff5b81e1d)" d="
M239.4 388.8
L239.4 345.6
L295.2 345.6
L295.2 388.8
L239.4 388.8
z
" style="fill:#000080;"/>
    <path clip-path="url(#p7ff5b81e1d)" d="
M295.2 388.8
L295.2 345.6
L351 345.6
L351 388.8
L295.2 388.8
z
" style="fill:#800000;"/>
    <path clip-path="url(#p7ff5b81e1d)" d="
M351 388.8
L351 345.6
L406.8 345.6
L406.8 388.8
L351 388.8
z
" style="fill:#000080;"/>
    <path clip-path="url(#p7ff5b81e1d)" d="
M406.8 388.8
L406.8 345.6
L462.6 345.6
L462.6 388.8
L406.8 388.8
z
" style="fill:#800000;"/>
    <path clip-path="url(#p7ff5b81e1d)" d="
M462.6 388.8
L462.6 345.6
L518.4 345.6
L518.4 388.8
L462.6 388.8
z
" style="fill:#000080;"/>
    <path clip-path="url(#p7ff5b81e1d)" d="
M72 345.6
L72 302.4
L127.8 302.4
L127.8 345.6
L72 345.6
z
" style="fill:#000080;"/>
    <path clip-path="url(#p7ff5b81e1d)" d="
M127.8 345.6
L127.8 302.4
L183.6 302.4
L183.6 345.6
L127.8 345.6
z
" style="fill:#800000;"/>
    <path clip-path="url(#p7ff5b81e1d)" d="
M183.6 345.6
L183.6 302.4
L239.4 302.4
L239.4 345.6
L183.6 345.6
z
" style="fill:#000080;"/>
    <path clip-path="url(#p7ff5b81e1d)" d="
M239.4 345.6
L239.4 302.4
L295.2 302.4
L295.2 345.6
L239.4 345.6
z
" style="fill:#800000;"/>
    <path clip-path="url(#p7ff5b81e1d)" d="
M295.2 345.6
L295.2 302.4
L351 302.4
L351 345.6
L295.2 345.6
z
" style="fill:#000080;"/>
    <path clip-path="url(#p7ff5b81e1d)" d="
M351 345.6
L351 302.4
L406.8 302.4
L406.8 345.6
L351 345.6
z
" style="fill:#800000;"/>
    <path clip-path="url(#p7ff5b81e1d)" d="
M406.8 345.6
L406.8 302.4
L462.6 302.4
L462.6 345.6
L406.8 345.6
z
" style="fill:#000080;"/>
    <path clip-path="url(#p7ff5b81e1d)" d="
M462.6 345.6
L462.6 302.4
L518.4 302.4
L518.4 345.6
L462.6 345.6
z
" style="fill:#800000;"/>
    <path clip-path="url(#p7ff5b81e1d)" d="
M72 302.4
L72 259.2
L127.8 259.2
L127.8 302.4
L72 302.4
z
" style="fill:#800000;"/>
    <path clip-path="url(#p7ff5b81e1d)" d="
M127.8 302.4
L127.8 259.2
L183.6 259.2
L183.6 302.4
L127.8 302.4
z
" style="fill:#000080;"/>
    <path clip-path="url(#p7ff5b81e1d)" d="
M183.6 302.4
L183.6 259.2
L239.4 259.2
L239.4 302.4
L183.6 302.4
z
" style="fill:#800000;"/>
    <path clip-path="url(#p7ff5b81e1d)" d="
M239.4 302.4
L239.4 259.2
L295.2 259.2
L295.2 302.4
L239.4 302.4
z
" style="fill:#000080;"/>
    <path clip-path="url(#p7ff5b81e1d)" d="
M295.2 302.4
L295.2 259.2
L351 259.2
L351 302.4
L295.2 302.4
z
" style="fill:#800000;"/>
    <path clip-path="url(#p7ff5b81e1d)" d="
M351 302.4
L351 259.2
L406.8 259.2
L406.8 302.4
L351 302.4
z
" style="fill:#000080;"/>
    <path clip-path="url(#p7ff5b81e1d)" d="
M406.8 302.4
L406.8 259.2
L462.6 259.2
L462.6 302.4
L406.8 302.4
z
" style="fill:#800000;"/>
    <path clip-path="url(#p7ff5b81e1d)" d="
M462.6 302.4
L462.6 259.2
L518.4 259.2
L518.4 302.4
L462.6 302.4
z
" style="fill:#000080;"/>
    <path clip-path="url(#p7ff5b81e1d)" d="
M72 259.2
L72 216
L127.8 216
L127.8 259.2
L72 259.2
z
" style="fill:#000080;"/>
    <path clip-path="url(#p7ff5b81e1d)" d="
M127.8 259.2
L127.8 216
L183.6 216
L183.6 259.2
L127.8 259.2
z
" style="fill:#800000;"/>
    <path clip-path="url(#p7ff5b81e1d)" d="
M183.6 259.2
L183.6 216
L239.4 216
L239.4 259.2
L183.6 259.2
z
" style="fill:#000080;"/>
    <path clip-path="url(#p7ff5b81e1d)" d="
M239.4 259.2
L239.4 216
L295.2 216
L295.2 259.2
L239.4 259.2
z
" style="fill:#800000;"/>
    <path clip-path="url(#p7ff5b81e1d)" d="
M295.2 259.2
L295.2 216
L351 216
L351 259.2
L295.2 259.2
z
" style="fill:#000080;"/>
    <path clip-path="url(#p7ff5b81e1d)" d="
M351 259.2
L351 216
L406.8 216
L406.8 259.2
L351 259.2
z
" style="fill:#800000;"/>
    <path clip-path="url(#p7ff5b81e1d)" d="
M406.8 259.2
L406.8 216
L462.6 216
L462.6 259.2
L406.8 259.2
z
" style="fill:#000080;"/>
    <path clip-path="url(#p7ff5b81e1d)" d="
M462.6 259.2
L462.6 216
L518.4 216
L518.4 259.2
L462.6 259.2
z
" style="fill:#800000;"/>
    <path clip-path="url(#p7ff5b81e1d)" d="
M72 216
L72 172.8
L127.8 172.8
L127.8 216
L72 216
z
" style="fill:#800000;"/>
    <path clip-path="url(#p7ff5b81e1d)" d="
M127.8 216
L127.8 172.8
L183.6 172.8
L183.6 216
L127.8 216
z
" style="fill:#000080;"/>
    <path clip-path="url(#p7ff5b81e1d)" d="
M183.6 216
L183.6 172.8
L239.4 172.8
L239.4 216
L183.6 216
z
" style="fill:#800000;"/>
    <path clip-path="url(#p7ff5b81e1d)" d="
M239.4 216
L239.4 172.8
L295.2 172.8
L295.2 216
L239.4 216
z
" style="fill:#000080;"/>
    <path clip-path="url(#p7ff5b81e1d)" d="
M295.2 216
L295.2 172.8
L351 172.8
L351 216
L295.2 216
z
" style="fill:#800000;"/>
    <path clip-path="url(#p7ff5b81e1d)" d="
M351 216
L351 172.8
L406.8 172.8
L406.8 216
L351 216
z
" style="fill:#000080;"/>
    <path clip-path="url(#p7ff5b81e1d)" d="
M406.8 216
L406.8 172.8
L462.6 172.8
L462.6 216
L406.8 216
z
" style="fill:#800000;"/>
    <path clip-path="url(#p7ff5b81e1d)" d="
M462.6 216
L462.6 172.8
L518.4 172.8
L518.4 216
L462.6 216
z
" style="fill:#000080;"/>
    <path clip-path="url(#p7ff5b81e1d)" d="
M72 172.8
L72 129.6
L127.8 129.6
L127.8 172.8
L72 172.8
z
" style="fill:#000080;"/>
    <path clip-path="url(#p7ff5b81e1d)" d="
M127.8 172.8
L127.8 129.6
L183.6 129.6
L183.6 172.8
L127.8 172.8
z
" style="fill:#800000;"/>
    <path clip-path="url(#p7ff5b81e1d)" d="
M183.6 172.8
L183.6 129.6
L239.4 129.6
L239.4 172.8
L183.6 172.8
z
" style="fill:#000080;"/>
    <path clip-path="url(#p7ff5b81e1d)" d="
M239.4 172.8
L239.4 129.6
L295.2 129.6
L295.2 172.8
L239.4 172.8
z
" style="fill:#800000;"/>
    <path clip-path="url(#p7ff5b81e1d)" d="
M295.2 172.8
L295.2 129.6
L351 129.6
L351 172.8
L295.2 172.8
z
" style="fill:#000080;"/>
    <path clip-path="url(#p7ff5b81e1d)" d="
M351 172.8
L351 129.6
L406.8 129.6
L406.8 172.8
L351 172.8
z
" style="fill:#800000;"/>
    <path clip-path="url(#p7ff5b81e1d)" d="
M406.8 172.8
L406.8 129.6
L462.6 129.6
L462.6 172.8
L406.8 172.8
z
" style="fill:#000080;"/>
    <path clip-path="url(#p7ff5b81e1d)" d="
M462.6 172.8
L462.6 129.6
L518.4 129.6
L518.4 172.8
L462.6 172.8
z
" style="fill:#800000;"/>
    <path clip-path="url(#p7ff5b81e1d)" d="
M72 129.6
L72 86.4
L127.8 86.4
L127.8 129.6
L72 129.6
z
" style="fill:#800000;"/>
    <path clip-path="url(#p7ff5b81e1d)" d="
M127.8 129.6
L127.8 86.4
L183.6 86.4
L183.6 129.6
L127.8 129.6
z
" style="fill:#000080;"/>
    <path clip-path="url(#p7ff5b81e1d)" d="
M183.6 129.6
L183.6 86.4
L239.4 86.4
L239.4 129.6
L183.6 129.6
z
" style="fill:#800000;"/>
    <path clip-path="url(#p7ff5b81e1d)" d="
M239.4 129.6
L239.4 86.4
L295.2 86.4
L295.2 129.6
L239.4 129.6
z
" style="fill:#000080;"/>
    <path clip-path="url(#p7ff5b81e1d)" d="
M295.2 129.6
L295.2 86.4
L351 86.4
L351 129.6
L295.2 129.6
z
" style="fill:#800000;"/>
    <path clip-path="url(#p7ff5b81e1d)" d="
M351 129.6
L351 86.4
L406.8 86.4
L406.8 129.6
L351 129.6
z
" style="fill:#000080;"/>
    <path clip-path="url(#p7ff5b81e1d)" d="
M406.8 129.6
L406.8 86.4
L462.6 86.4
L462.6 129.6
L406.8 129.6
z
" style="fill:#800000;"/>
    <path clip-path="url(#p7ff5b81e1d)" d="
M462.6 129.6
L462.6 86.4
L518.4 86.4
L518.4 129.6
L462.6 129.6
z
" style="fill:#000080;"/>
    <path clip-path="url(#p7ff5b81e1d)" d="
M72 86.4
L72 43.2
L127.8 43.2
L127.8 86.4
L72 86.4
z
" style="fill:#000080;"/>
    <path clip-path="url(#p7ff5b81e1d)" d="
M127.8 86.4
L127.8 43.2
L183.6 43.2
L183.6 86.4
L127.8 86.4
z
" style="fill:#800000;"/>
    <path clip-path="url(#p7ff5b81e1d)" d="
M183.6 86.4
L183.6 43.2
L239.4 43.2
L239.4 86.4
L183.6 86.4
z
" style="fill:#000080;"/>
    <path clip-path="url(#p7ff5b81e1d)" d="
M239.4 86.4
L239.4 43.2
L295.2 43.2
L295.2 86.4
L239.4 86.4
z
" style="fill:#800000;"/>
    <path clip-path="url(#p7ff5b81e1d)" d="
M295.2 86.4
L295.2 43.2
L351 43.2
L351 86.4
L295.2 86.4
z
" style="fill:#000080;"/>
    <path clip-path="url(#p7ff5b81e1d)" d="
M351 86.4
L351 43.2
L406.8 43.2
L406.8 86.4
L351 86.4
z
" style="fill:#800000;"/>
    <path clip-path="url(#p7ff5b81e1d)" d="
M406.8 86.4
L406.8 43.2
L462.6 43.2
L462.6 86.4
L406.8 86.4
z
" style="fill:#000080;"/>
    <path clip-path="url(#p7ff5b81e1d)" d="
M462.6 86.4
L462.6 43.2
L518.4 43.2
L518.4 86.4
L462.6 86.4
z
" style="fill:#800000;"/>
   </g>
   <g id="PolyCollection_2">
    <path clip-path="url(#p7ff5b81e1d)" d="
M72 388.8
L72 345.6
L127.8 345.6
L127.8 388.8
L72 388.8
z
" style="fill:#ffffff;"/>
    <path clip-path="url(#p7ff5b81e1d)" d="
M127.8 388.8
L127.8 345.6
L183.6 345.6
L183.6 388.8
L127.8 388.8
z
"/>
    <path clip-path="url(#p7ff5b81e1d)" d="
M183.6 388.8
L183.6 345.6
L239.4 345.6
L239.4 388.8
L183.6 388.8
z
" style="fill:#ffffff;"/>
    <path clip-path="url(#p7ff5b81e1d)" d="
M239.4 388.8
L239.4 345.6
L295.2 345.6
L295.2 388.8
L239.4 388.8
z
"/>
    <path clip-path="url(#p7ff5b81e1d)" d="
M295.2 388.8
L295.2 345.6
L351 345.6
L351 388.8
L295.2 388.8
z
" style="fill:#ffffff;"/>
    <path clip-path="url(#p7ff5b81e1d)" d="
M351 388.8
L351 345.6
L406.8 345.6
L406.8 388.8
L351 388.8
z
"/>
    <path clip-path="url(#p7ff5b81e1d)" d="
M406.8 388.8
L406.8 345.6
L462.6 345.6
L462.6 388.8
L406.8 388.8
z
" style="fill:#ffffff;"/>
    <path clip-path="url(#p7ff5b81e1d)" d="
M462.6 388.8
L462.6 345.6
L518.4 345.6
L518.4 388.8
L462.6 388.8
z
"/>
    <path clip-path="url(#p7ff5b81e1d)" d="
M72 345.6
L72 302.4
L127.8 302.4
L127.8 345.6
L72 345.6
z
"/>
    <path clip-path="url(#p7ff5b81e1d)" d="
M127.8 345.6
L127.8 302.4
L183.6 302.4
L183.6 345.6
L127.8 345.6
z
" style="fill:#ffffff;"/>
    <path clip-path="url(#p7ff5b81e1d)" d="
M183.6 345.6
L183.6 302.4
L239.4 302.4
L239.4 345.6
L183.6 345.6
z
"/>
    <path clip-path="url(#p7ff5b81e1d)" d="
M239.4 345.6
L239.4 302.4
L295.2 302.4
L295.2 345.6
L239.4 345.6
z
" style="fill:#ffffff;"/>
    <path clip-path="url(#p7ff5b81e1d)" d="
M295.2 345.6
L295.2 302.4
L351 302.4
L351 345.6
L295.2 345.6
z
"/>
    <path clip-path="url(#p7ff5b81e1d)" d="
M351 345.6
L351 302.4
L406.8 302.4
L406.8 345.6
L351 345.6
z
" style="fill:#ffffff;"/>
    <path clip-path="url(#p7ff5b81e1d)" d="
M406.8 345.6
L406.8 302.4
L462.6 302.4
L462.6 345.6
L406.8 345.6
z
"/>
    <path clip-path="url(#p7ff5b81e1d)" d="
M462.6 345.6
L462.6 302.4
L518.4 302.4
L518.4 345.6
L462.6 345.6
z
" style="fill:#ffffff;"/>
    <path clip-path="url(#p7ff5b81e1d)" d="
M72 302.4
L72 259.2
L127.8 259.2
L127.8 302.4
L72 302.4
z
" style="fill:#ffffff;"/>
    <path clip-path="url(#p7ff5b81e1d)" d="
M127.8 302.4
L127.8 259.2
L183.6 259.2
L183.6 302.4
L127.8 302.4
z
"/>
    <path clip-path="url(#p7ff5b81e1d)" d="
M183.6 302.4
L183.6 259.2
L239.4 259.2
L239.4 302.4
L183.6 302.4
z
" style="fill:#ffffff;"/>
    <path clip-path="url(#p7ff5b81e1d)" d="
M239.4 302.4
L239.4 259.2
L295.2 259.2
L295.2 302.4
L239.4 302.4
z
"/>
    <path clip-path="url(#p7ff5b81e1d)" d="
M295.2 302.4
L295.2 259.2
L351 259.2
L351 302.4
L295.2 302.4
z
" style="fill:#ffffff;"/>
    <path clip-path="url(#p7ff5b81e1d)" d="
M351 302.4
L351 259.2
L406.8 259.2
L406.8 302.4
L351 302.4
z
"/>
    <path clip-path="url(#p7ff5b81e1d)" d="
M406.8 302.4
L406.8 259.2
L462.6 259.2
L462.6 302.4
L406.8 302.4
z
" style="fill:#ffffff;"/>
    <path clip-path="url(#p7ff5b81e1d)" d="
M462.6 302.4
L462.6 259.2
L518.4 259.2
L518.4 302.4
L462.6 302.4
z
"/>
    <path clip-path="url(#p7ff5b81e1d)" d="
M72 259.2
L72 216
L127.8 216
L127.8 259.2
L72 259.2
z
"/>
    <path clip-path="url(#p7ff5b81e1d)" d="
M127.8 259.2
L127.8 216
L183.6 216
L183.6 259.2
L127.8 259.2
z
" style="fill:#ffffff;"/>
    <path clip-path="url(#p7ff5b81e1d)" d="
M183.6 259.2
L183.6 216
L239.4 216
L239.4 259.2
L183.6 259.2
z
"/>
    <path clip-path="url(#p7ff5b81e1d)" d="
M239.4 259.2
L239.4 216
L295.2 216
L295.2 259.2
L239.4 259.2
z
" style="fill:#ffffff;"/>
    <path clip-path="url(#p7ff5b81e1d)" d="
M295.2 259.2
L295.2 216
L351 216
L351 259.2
L295.2 259.2
z
"/>
    <path clip-path="url(#p7ff5b81e1d)" d="
M351 259.2
L351 216
L406.8 216
L406.8 259.2
L351 259.2
z
" style="fill:#ffffff;"/>
    <path clip-path="url(#p7ff5b81e1d)" d="
M406.8 259.2
L406.8 216
L462.6 216
L462.6 259.2
L406.8 259.2
z
"/>
    <path clip-path="url(#p7ff5b81e1d)" d="
M462.6 259.2
L462.6 216
L518.4 216
L518.4 259.2
L462.6 259.2
z
" style="fill:#ffffff;"/>
    <path clip-path="url(#p7ff5b81e1d)" d="
M72 216
L72 172.8
L127.8 172.8
L127.8 216
L72 216
z
" style="fill:#ffffff;"/>
    <path clip-path="url(#p7ff5b81e1d)" d="
M127.8 216
L127.8 172.8
L183.6 172.8
L183.6 216
L127.8 216
z
"/>
    <path clip-path="url(#p7ff5b81e1d)" d="
M183.6 216
L183.6 172.8
L239.4 172.8
L239.4 216
L183.6 216
z
" style="fill:#ffffff;"/>
    <path clip-path="url(#p7ff5b81e1d)" d="
M239.4 216
L239.4 172.8
L295.2 172.8
L295.2 216
L239.4 216
z
"/>
    <path clip-path="url(#p7ff5b81e1d)" d="
M295.2 216
L295.2 172.8
L351 172.8
L351 216
L295.2 216
z
" style="fill:#ffffff;"/>
    <path clip-path="url(#p7ff5b81e1d)" d="
M351 216
L351 172.8
L406.8 172.8
L406.8 216
L351 216
z
"/>
    <path clip-path="url(#p7ff5b81e1d)" d="
M406.8 216
L406.8 172.8
L462.6 172.8
L462.6 216
L406.8 216
z
" style="fill:#ffffff;"/>
    <path clip-path="url(#p7ff5b81e1d)" d="
M462.6 216
L462.6 172.8
L518.4 172.8
L518.4 216
L462.6 216
z
"/>
    <path clip-path="url(#p7ff5b81e1d)" d="
M72 172.8
L72 129.6
L127.8 129.6
L127.8 172.8
L72 172.8
z
"/>
    <path clip-path="url(#p7ff5b81e1d)" d="
M127.8 172.8
L127.8 129.6
L183.6 129.6
L183.6 172.8
L127.8 172.8
z
" style="fill:#ffffff;"/>
    <path clip-path="url(#p7ff5b81e1d)" d="
M183.6 172.8
L183.6 129.6
L239.4 129.6
L239.4 172.8
L183.6 172.8
z
"/>
    <path clip-path="url(#p7ff5b81e1d)" d="
M239.4 172.8
L239.4 129.6
L295.2 129.6
L295.2 172.8
L239.4 172.8
z
" style="fill:#ffffff;"/>
    <path clip-path="url(#p7ff5b81e1d)" d="
M295.2 172.8
L295.2 129.6
L351 129.6
L351 172.8
L295.2 172.8
z
"/>
    <path clip-path="url(#p7ff5b81e1d)" d="
M351 172.8
L351 129.6
L406.8 129.6
L406.8 172.8
L351 172.8
z
" style="fill:#ffffff;"/>
    <path clip-path="url(#p7ff5b81e1d)" d="
M406.8 172.8
L406.8 129.6
L462.6 129.6
L462.6 172.8
L406.8 172.8
z
"/>
    <path clip-path="url(#p7ff5b81e1d)" d="
M462.6 172.8
L462.6 129.6
L518.4 129.6
L518.4 172.8
L462.6 172.8
z
" style="fill:#ffffff;"/>
    <path clip-path="url(#p7ff5b81e1d)" d="
M72 129.6
L72 86.4
L127.8 86.4
L127.8 129.6
L72 129.6
z
" style="fill:#ffffff;"/>
    <path clip-path="url(#p7ff5b81e1d)" d="
M127.8 129.6
L127.8 86.4
L183.6 86.4
L183.6 129.6
L127.8 129.6
z
"/>
    <path clip-path="url(#p7ff5b81e1d)" d="
M183.6 129.6
L183.6 86.4
L239.4 86.4
L239.4 129.6
L183.6 129.6
z
" style="fill:#ffffff;"/>
    <path clip-path="url(#p7ff5b81e1d)" d="
M239.4 129.6
L239.4 86.4
L295.2 86.4
L295.2 129.6
L239.4 129.6
z
"/>
    <path clip-path="url(#p7ff5b81e1d)" d="
M295.2 129.6
L295.2 86.4
L351 86.4
L351 129.6
L295.2 129.6
z
" style="fill:#ffffff;"/>
    <path clip-path="url(#p7ff5b81e1d)" d="
M351 129.6
L351 86.4
L406.8 86.4
L406.8 129.6
L351 129.6
z
"/>
    <path clip-path="url(#p7ff5b81e1d)" d="
M406.8 129.6
L406.8 86.4
L462.6 86.4
L462.6 129.6
L406.8 129.6
z
" style="fill:#ffffff;"/>
    <path clip-path="url(#p7ff5b81e1d)" d="
M462.6 129.6
L462.6 86.4
L518.4 86.4
L518.4 129.6
L462.6 129.6
z
"/>
    <path clip-path="url(#p7ff5b81e1d)" d="
M72 86.4
L72 43.2
L127.8 43.2
L127.8 86.4
L72 86.4
z
"/>
    <path clip-path="url(#p7ff5b81e1d)" d="
M127.8 86.4
L127.8 43.2
L183.6 43.2
L183.6 86.4
L127.8 86.4
z
" style="fill:#ffffff;"/>
    <path clip-path="url(#p7ff5b81e1d)" d="
M183.6 86.4
L183.6 43.2
L239.4 43.2
L239.4 86.4
L183.6 86.4
z
"/>
    <path clip-path="url(#p7ff5b81e1d)" d="
M239.4 86.4
L239.4 43.2
L295.2 43.2
L295.2 86.4
L239.4 86.4
z
" style="fill:#ffffff;"/>
    <path clip-path="url(#p7ff5b81e1d)" d="
M295.2 86.4
L295.2 43.2
L351 43.2
L351 86.4
L295.2 86.4
z
"/>
    <path clip-path="url(#p7ff5b81e1d)" d="
M351 86.4
L351 43.2
L406.8 43.2
L406.8 86.4
L351 86.4
z
" style="fill:#ffffff;"/>
    <path clip-path="url(#p7ff5b81e1d)" d="
M406.8 86.4
L406.8 43.2
L462.6 43.2
L462.6 86.4
L406.8 86.4
z
"/>
    <path clip-path="url(#p7ff5b81e1d)" d="
M462.6 86.4
L462.6 43.2
L518.4 43.2
L518.4 86.4
L462.6 86.4
z
" style="fill:#ffffff;"/>
   </g>
   <g id="PolyCollection_3">
    <path clip-path="url(#p7ff5b81e1d)" d="
M72 388.8
L72 345.6
L127.8 345.6
L127.8 388.8
L72 388.8
z
" style="fill:#ffffff;"/>
    <path clip-path="url(#p7ff5b81e1d)" d="
M127.8 388.8
L127.8 345.6
L183.6 345.6
L183.6 388.8
L127.8 388.8
z
"/>
    <path clip-path="url(#p7ff5b81e1d)" d="
M183.6 388.8
L183.6 345.6
L239.4 345.6
L239.4 388.8
L183.6 388.8
z
" style="fill:#ffffff;"/>
    <path clip-path="url(#p7ff5b81e1d)" d="
M239.4 388.8
L239.4 345.6
L295.2 345.6
L295.2 388.8
L239.4 388.8
z
"/>
    <path clip-path="url(#p7ff5b81e1d)" d="
M295.2 388.8
L295.2 345.6
L351 345.6
L351 388.8
L295.2 388.8
z
" style="fill:#ffffff;"/>
    <path clip-path="url(#p7ff5b81e1d)" d="
M351 388.8
L351 345.6
L406.8 345.6
L406.8 388.8
L351 388.8
z
"/>
    <path clip-path="url(#p7ff5b81e1d)" d="
M406.8 388.8
L406.8 345.6
L462.6 345.6
L462.6 388.8
L406.8 388.8
z
" style="fill:#ffffff;"/>
    <path clip-path="url(#p7ff5b81e1d)" d="
M462.6 388.8
L462.6 345.6
L518.4 345.6
L518.4 388.8
L462.6 388.8
z
"/>
    <path clip-path="url(#p7ff5b81e1d)" d="
M72 345.6
L72 302.4
L127.8 302.4
L127.8 345.6
L72 345.6
z
"/>
    <path clip-path="url(#p7ff5b81e1d)" d="
M127.8 345.6
L127.8 302.4
L183.6 302.4
L183.6 345.6
L127.8 345.6
z
" style="fill:#ffffff;"/>
    <path clip-path="url(#p7ff5b81e1d)" d="
M183.6 345.6
L183.6 302.4
L239.4 302.4
L239.4 345.6
L183.6 345.6
z
"/>
    <path clip-path="url(#p7ff5b81e1d)" d="
M239.4 345.6
L239.4 302.4
L295.2 302.4
L295.2 345.6
L239.4 345.6
z
" style="fill:#ffffff;"/>
    <path clip-path="url(#p7ff5b81e1d)" d="
M295.2 345.6
L295.2 302.4
L351 302.4
L351 345.6
L295.2 345.6
z
"/>
    <path clip-path="url(#p7ff5b81e1d)" d="
M351 345.6
L351 302.4
L406.8 302.4
L406.8 345.6
L351 345.6
z
" style="fill:#ffffff;"/>
    <path clip-path="url(#p7ff5b81e1d)" d="
M406.8 345.6
L406.8 302.4
L462.6 302.4
L462.6 345.6
L406.8 345.6
z
"/>
    <path clip-path="url(#p7ff5b81e1d)" d="
M462.6 345.6
L462.6 302.4
L518.4 302.4
L518.4 345.6
L462.6 345.6
z
" style="fill:#ffffff;"/>
    <path clip-path="url(#p7ff5b81e1d)" d="
M72 302.4
L72 259.2
L127.8 259.2
L127.8 302.4
L72 302.4
z
" style="fill:#ffffff;"/>
    <path clip-path="url(#p7ff5b81e1d)" d="
M127.8 302.4
L127.8 259.2
L183.6 259.2
L183.6 302.4
L127.8 302.4
z
"/>
    <path clip-path="url(#p7ff5b81e1d)" d="
M183.6 302.4
L183.6 259.2
L239.4 259.2
L239.4 302.4
L183.6 302.4
z
" style="fill:#ffffff;"/>
    <path clip-path="url(#p7ff5b81e1d)" d="
M239.4 302.4
L239.4 259.2
L295.2 259.2
L295.2 302.4
L239.4 302.4
z
"/>
    <path clip-path="url(#p7ff5b81e1d)" d="
M295.2 302.4
L295.2 259.2
L351 259.2
L351 302.4
L295.2 302.4
z
" style="fill:#ffffff;"/>
    <path clip-path="url(#p7ff5b81e1d)" d="
M351 302.4
L351 259.2
L406.8 259.2
L406.8 302.4
L351 302.4
z
"/>
    <path clip-path="url(#p7ff5b81e1d)" d="
M406.8 302.4
L406.8 259.2
L462.6 259.2
L462.6 302.4
L406.8 302.4
z
" style="fill:#ffffff;"/>
    <path clip-path="url(#p7ff5b81e1d)" d="
M462.6 302.4
L462.6 259.2
L518.4 259.2
L518.4 302.4
L462.6 302.4
z
"/>
    <path clip-path="url(#p7ff5b81e1d)" d="
M72 259.2
L72 216
L127.8 216
L127.8 259.2
L72 259.2
z
"/>
    <path clip-path="url(#p7ff5b81e1d)" d="
M127.8 259.2
L127.8 216
L183.6 216
L183.6 259.2
L127.8 259.2
z
" style="fill:#ffffff;"/>
    <path clip-path="url(#p7ff5b81e1d)" d="
M183.6 259.2
L183.6 216
L239.4 216
L239.4 259.2
L183.6 259.2
z
"/>
    <path clip-path="url(#p7ff5b81e1d)" d="
M239.4 259.2
L239.4 216
L295.2 216
L295.2 259.2
L239.4 259.2
z
" style="fill:#ffffff;"/>
    <path clip-path="url(#p7ff5b81e1d)" d="
M295.2 259.2
L295.2 216
L351 216
L351 259.2
L295.2 259.2
z
"/>
    <path clip-path="url(#p7ff5b81e1d)" d="
M351 259.2
L351 216
L406.8 216
L406.8 259.2
L351 259.2
z
" style="fill:#ffffff;"/>
    <path clip-path="url(#p7ff5b81e1d)" d="
M406.8 259.2
L406.8 216
L462.6 216
L462.6 259.2
L406.8 259.2
z
"/>
    <path clip-path="url(#p7ff5b81e1d)" d="
M462.6 259.2
L462.6 216
L518.4 216
L518.4 259.2
L462.6 259.2
z
" style="fill:#ffffff;"/>
    <path clip-path="url(#p7ff5b81e1d)" d="
M72 216
L72 172.8
L127.8 172.8
L127.8 216
L72 216
z
" style="fill:#ffffff;"/>
    <path clip-path="url(#p7ff5b81e1d)" d="
M127.8 216
L127.8 172.8
L183.6 172.8
L183.6 216
L127.8 216
z
"/>
    <path clip-path="url(#p7ff5b81e1d)" d="
M183.6 216
L183.6 172.8
L239.4 172.8
L239.4 216
L183.6 216
z
" style="fill:#ffffff;"/>
    <path clip-path="url(#p7ff5b81e1d)" d="
M239.4 216
L239.4 172.8
L295.2 172.8
L295.2 216
L239.4 216
z
"/>
    <path clip-path="url(#p7ff5b81e1d)" d="
M295.2 216
L295.2 172.8
L351 172.8
L351 216
L295.2 216
z
" style="fill:#ffffff;"/>
    <path clip-path="url(#p7ff5b81e1d)" d="
M351 216
L351 172.8
L406.8 172.8
L406.8 216
L351 216
z
"/>
    <path clip-path="url(#p7ff5b81e1d)" d="
M406.8 216
L406.8 172.8
L462.6 172.8
L462.6 216
L406.8 216
z
" style="fill:#ffffff;"/>
    <path clip-path="url(#p7ff5b81e1d)" d="
M462.6 216
L462.6 172.8
L518.4 172.8
L518.4 216
L462.6 216
z
"/>
    <path clip-path="url(#p7ff5b81e1d)" d="
M72 172.8
L72 129.6
L127.8 129.6
L127.8 172.8
L72 172.8
z
"/>
    <path clip-path="url(#p7ff5b81e1d)" d="
M127.8 172.8
L127.8 129.6
L183.6 129.6
L183.6 172.8
L127.8 172.8
z
" style="fill:#ffffff;"/>
    <path clip-path="url(#p7ff5b81e1d)" d="
M183.6 172.8
L183.6 129.6
L239.4 129.6
L239.4 172.8
L183.6 172.8
z
"/>
    <path clip-path="url(#p7ff5b81e1d)" d="
M239.4 172.8
L239.4 129.6
L295.2 129.6
L295.2 172.8
L239.4 172.8
z
" style="fill:#ffffff;"/>
    <path clip-path="url(#p7ff5b81e1d)" d="
M295.2 172.8
L295.2 129.6
L351 129.6
L351 172.8
L295.2 172.8
z
"/>
    <path clip-path="url(#p7ff5b81e1d)" d="
M351 172.8
L351 129.6
L406.8 129.6
L406.8 172.8
L351 172.8
z
" style="fill:#ffffff;"/>
    <path clip-path="url(#p7ff5b81e1d)" d="
M406.8 172.8
L406.8 129.6
L462.6 129.6
L462.6 172.8
L406.8 172.8
z
"/>
    <path clip-path="url(#p7ff5b81e1d)" d="
M462.6 172.8
L462.6 129.6
L518.4 129.6
L518.4 172.8
L462.6 172.8
z
" style="fill:#ffffff;"/>
    <path clip-path="url(#p7ff5b81e1d)" d="
M72 129.6
L72 86.4
L127.8 86.4
L127.8 129.6
L72 129.6
z
" style="fill:#ffffff;"/>
    <path clip-path="url(#p7ff5b81e1d)" d="
M127.8 129.6
L127.8 86.4
L183.6 86.4
L183.6 129.6
L127.8 129.6
z
"/>
    <path clip-path="url(#p7ff5b81e1d)" d="
M183.6 129.6
L183.6 86.4
L239.4 86.4
L239.4 129.6
L183.6 129.6
z
" style="fill:#ffffff;"/>
    <path clip-path="url(#p7ff5b81e1d)" d="
M239.4 129.6
L239.4 86.4
L295.2 86.4
L295.2 129.6
L239.4 129.6
z
"/>
    <path clip-path="url(#p7ff5b81e1d)" d="
M295.2 129.6
L295.2 86.4
L351 86.4
L351 129.6
L295.2 129.6
z
" style="fill:#ffffff;"/>
    <path clip-path="url(#p7ff5b81e1d)" d="
M351 129.6
L351 86.4
L406.8 86.4
L406.8 129.6
L351 129.6
z
"/>
    <path clip-path="url(#p7ff5b81e1d)" d="
M406.8 129.6
L406.8 86.4
L462.6 86.4
L462.6 129.6
L406.8 129.6
z
" style="fill:#ffffff;"/>
    <path clip-path="url(#p7ff5b81e1d)" d="
M462.6 129.6
L462.6 86.4
L518.4 86.4
L518.4 129.6
L462.6 129.6
z
"/>
    <path clip-path="url(#p7ff5b81e1d)" d="
M72 86.4
L72 43.2
L127.8 43.2
L127.8 86.4
L72 86.4
z
"/>
    <path clip-path="url(#p7ff5b81e1d)" d="
M127.8 86.4
L127.8 43.2
L183.6 43.2
L183.6 86.4
L127.8 86.4
z
" style="fill:#ffffff;"/>
    <path clip-path="url(#p7ff5b81e1d)" d="
M183.6 86.4
L183.6 43.2
L239.4 43.2
L239.4 86.4
L183.6 86.4
z
"/>
    <path clip-path="url(#p7ff5b81e1d)" d="
M239.4 86.4
L239.4 43.2
L295.2 43.2
L295.2 86.4
L239.4 86.4
z
" style="fill:#ffffff;"/>
    <path clip-path="url(#p7ff5b81e1d)" d="
M295.2 86.4
L295.2 43.2
L351 43.2
L351 86.4
L295.2 86.4
z
"/>
    <path clip-path="url(#p7ff5b81e1d)" d="
M351 86.4
L351 43.2
L406.8 43.2
L406.8 86.4
L351 86.4
z
" style="fill:#ffffff;"/>
    <path clip-path="url(#p7ff5b81e1d)" d="
M406.8 86.4
L406.8 43.2
L462.6 43.2
L462.6 86.4
L406.8 86.4
z
"/>
    <path clip-path="url(#p7ff5b81e1d)" d="
M462.6 86.4
L462.6 43.2
L518.4 43.2
L518.4 86.4
L462.6 86.4
z
" style="fill:#ffffff;"/>
   </g>
   <g id="patch_3">
    <path d="
M72 43.2
L518.4 43.2" style="fill:none;stroke:#000000;stroke-linecap:square;stroke-linejoin:miter;"/>
   </g>
   <g id="patch_4">
    <path d="
M518.4 388.8
L518.4 43.2" style="fill:none;stroke:#000000;stroke-linecap:square;stroke-linejoin:miter;"/>
   </g>
   <g id="patch_5">
    <path d="
M72 388.8
L518.4 388.8" style="fill:none;stroke:#000000;stroke-linecap:square;stroke-linejoin:miter;"/>
   </g>
   <g id="patch_6">
    <path d="
M72 388.8
L72 43.2" style="fill:none;stroke:#000000;stroke-linecap:square;stroke-linejoin:miter;"/>
   </g>
   <g id="matplotlib.axis_1"/>
   <g id="matplotlib.axis_2"/>
  </g>
 </g>
 <defs>
  <clipPath id="p7ff5b81e1d">
   <rect height="345.6" width="446.4" x="72.0" y="43.2"/>
  </clipPath>
 </defs>
</svg>
